<?xml version="1.0" encoding="UTF-8" standalone="no"?>
<svg
   xmlns:dc="http://purl.org/dc/elements/1.1/"
   xmlns:cc="http://creativecommons.org/ns#"
   xmlns:rdf="http://www.w3.org/1999/02/22-rdf-syntax-ns#"
   xmlns:svg="http://www.w3.org/2000/svg"
   xmlns="http://www.w3.org/2000/svg"
   xmlns:sodipodi="http://sodipodi.sourceforge.net/DTD/sodipodi-0.dtd"
   xmlns:inkscape="http://www.inkscape.org/namespaces/inkscape"
   version="1.0"
   width="600.000000pt"
   height="318.000000pt"
   viewBox="0 0 600.000000 318.000000"
   preserveAspectRatio="xMidYMid meet"
   id="svg3043"
   inkscape:version="0.48.4 r9939"
   sodipodi:docname="mastir_logo_pure.svg">
  <defs
     id="defs3099" />
  <sodipodi:namedview
     pagecolor="#ffffff"
     bordercolor="#666666"
     borderopacity="1"
     objecttolerance="10"
     gridtolerance="10"
     guidetolerance="10"
     inkscape:pageopacity="0"
     inkscape:pageshadow="2"
     inkscape:window-width="1600"
     inkscape:window-height="837"
     id="namedview3097"
     showgrid="false"
     inkscape:zoom="1.1562752"
     inkscape:cx="404.49003"
     inkscape:cy="213.28984"
     inkscape:window-x="-8"
     inkscape:window-y="-8"
     inkscape:window-maximized="1"
     inkscape:current-layer="svg3043" />
  <metadata
     id="metadata3045">
Created by potrace 1.11, written by Peter Selinger 2001-2013
<rdf:RDF>
  <cc:Work
     rdf:about="">
    <dc:format>image/svg+xml</dc:format>
    <dc:type
       rdf:resource="http://purl.org/dc/dcmitype/StillImage" />
    <dc:title></dc:title>
  </cc:Work>
</rdf:RDF>
</metadata>
  <path
     style="fill:#000080;stroke:none"
     inkscape:connector-curvature="0"
     id="path3049"
     d="m 69,74.7 -68.5,68.2 68.8,0.1 68.7,0 0,-68.5 C 138,36.8 137.9,6.1 137.8,6.2 137.6,6.3 106.7,37.1 69,74.7 z" />
  <path
     style="fill:#aa0000;stroke:none"
     inkscape:connector-curvature="0"
     id="path3051"
     d="M 144,6.5 C 144,7.4 189,97 189.5,97 190,97 235,7.5 235,6.5 235,6.2 214.5,6 189.5,6 164.5,6 144,6.2 144,6.5 z" />
  <path
     style="fill:#000080;stroke:none"
     inkscape:connector-curvature="0"
     id="path3053"
     d="m 240.7,74.7 0.3,67.8 68,0.3 c 38.9,0.1 68,-0.2 68,-0.7 C 377,141.3 241.7,7 240.9,7 c -0.2,0 -0.3,30.5 -0.2,67.7 z" />
  <path
     style="fill:#000000;stroke:none"
     inkscape:connector-curvature="0"
     id="path3055"
     d="m 410,150 0,18 -10,0 -10,0 0,10 0,10 9,0 9,0 0,30.3 0,30.3 2.6,5.2 c 1.4,2.9 4.4,6.8 6.7,8.7 6.2,5.3 11.6,6.5 29.9,6.5 l 15.8,0 0,-10.5 0,-10.5 -10.4,0 c -11.9,0 -14.8,-1.3 -16.6,-7.8 -0.5,-2.1 -1,-14.4 -1,-28 l 0,-24.2 14,0 14,0 0,-10 0,-10 -14,0 -14,0 0,-18 0,-18 -12.5,0 -12.5,0 0,18 z" />
  <path
     style="fill:#000000;stroke:none"
     inkscape:connector-curvature="0"
     id="path3057"
     d="m 0.8,204.2 c -0.2,20 -0.3,42.5 -0.3,50 l 0,13.8 13.3,0 13.2,0 0,-39 0,-39 15.5,0 15.5,0 0.2,39.2 0.3,39.3 10.9,0.3 c 6,0.2 12,0.1 13.3,-0.3 l 2.3,-0.5 0,-39 0,-39 13.8,0 c 10.4,0 14.3,0.4 15.8,1.4 1.8,1.4 1.9,3.3 2.4,39.3 l 0.5,37.8 12,0 12,0 0.3,-39.5 c 0.3,-45.6 0.4,-44.9 -8.2,-52.7 -9.4,-8.6 -7,-8.3 -73.8,-8.3 L 1,168 0.8,204.2 z" />
  <path
     style="fill:#000000;stroke:none"
     inkscape:connector-curvature="0"
     id="path3059"
     d="m 170.9,175.7 c -0.1,4.3 -0.3,8.8 -0.4,10 l -0.2,2.3 28.1,0 c 24.8,0 28.5,0.2 31.6,1.8 4.8,2.4 8,7.5 8,12.8 l 0,4.4 -24.2,0 c -29.5,0 -35.4,1.2 -43.2,8.6 -5.2,4.9 -6.6,9.6 -6.6,22.7 0,13.6 0.8,16.2 6.9,22.5 7.2,7.3 6.1,7.2 52.1,7.2 l 41,0 0,-37.4 c 0,-40.6 -0.1,-41.8 -5.7,-49.5 -3.3,-4.6 -7.3,-7.5 -14.4,-10.4 -5.1,-2 -7.4,-2.2 -39.1,-2.5 l -33.8,-0.4 -0.1,7.9 z m 65.6,62.3 0,9.5 -20.7,0.3 -20.6,0.2 -2.4,-3.2 c -3.2,-4.6 -3.1,-10.7 0.1,-14.2 l 2.5,-2.6 20.5,0.2 20.6,0.3 0,9.5 z" />
  <path
     style="fill:#000000;stroke:none"
     inkscape:connector-curvature="0"
     id="path3061"
     d="m 300.5,169.6 c -6.2,3.2 -12.4,11.1 -14.6,18.6 -0.5,1.8 -1,6.9 -1,11.3 0,9.1 2.5,17.7 6.4,21.3 5,4.7 8.2,5.2 32.2,5.2 24.4,0 26.6,0.4 29.9,5.4 3.1,4.8 1.3,12 -3.8,14.9 -1.5,0.8 -11.4,1.4 -32.6,1.7 l -30.5,0.5 -0.3,9.8 -0.3,9.7 36.6,0 c 40.4,0 40.1,0 48.1,-6.5 2.3,-1.9 5.4,-5.8 6.8,-8.7 2.4,-4.7 2.6,-6.3 2.6,-17.2 0,-13.8 -1.4,-18.2 -7.1,-23 -7.7,-6.6 -10.2,-7.1 -33.9,-7.1 -11.8,0 -22.1,-0.4 -22.9,-0.9 -2.3,-1.4 -4.2,-7.2 -3.2,-9.8 2.2,-5.7 2.3,-5.7 33.7,-6 l 28.9,-0.3 0.3,-10.3 0.3,-10.2 -36.3,0 c -30.9,0 -36.7,0.2 -39.3,1.6 z" />
  <path
     style="fill:#000000;stroke:none"
     inkscape:connector-curvature="0"
     id="path3063"
     d="m 480,218.5 0,50.5 12.5,0 12.5,0 0,-50.5 0,-50.5 -12.5,0 -12.5,0 0,50.5 z" />
  <path
     style="fill:#000000;stroke:none"
     inkscape:connector-curvature="0"
     id="path3065"
     d="m 529,217.9 0,49.8 5.3,0.7 c 2.8,0.3 8.5,0.6 12.5,0.6 l 7.2,0 0,-41 0,-41 9.8,0 c 12.9,0 13.2,0.3 13.2,12.8 l 0,9.2 11.6,0 11.6,0 -0.4,-13.9 c -0.3,-13.3 -0.4,-14 -3.3,-18.7 -5.1,-8.3 -5.6,-8.4 -38.7,-8.4 l -28.8,0 0,49.9 z" />
  <text
     xml:space="preserve"
     style="font-size:33.01101303px;font-style:normal;font-weight:normal;line-height:125%;letter-spacing:0px;word-spacing:0px;fill:#000000;fill-opacity:1;stroke:none;font-family:Sans"
     x="-0.82818341"
     y="315.64584"
     id="text3131"
     sodipodi:linespacing="125%"
     transform="scale(1.0315942,0.96937342)"><tspan
       sodipodi:role="line"
       id="tspan3133"
       x="-0.82818341"
       y="315.64584">ENERJi TESiSLERi MONTAJ LTD. ŞTi.</tspan></text>
</svg>
